<?xml version='1.0' encoding='utf-8'?>
<svg xmlns="http://www.w3.org/2000/svg" version="1.1" width="600px" height="976px" viewBox="0 0 600 976"> <g id="layer1"> <g style="fill:rgb(155,60,7); fill-opacity:1.0; stroke-linejoin: miter"> <path d="M332.13828,63.281517C330.3846,63.379784,327.15277,63.58999,324.9815,63.760033C322.81012,63.930077,319.6242,64.1426,317.82684,64.19277C313.7227,64.360374,311.58365,64.80801,307.92178,66.2858C306.27896,66.941925,304.87234,67.47159,304.73465,67.46475C304.64285,67.46036,302.81177,68.19925,300.6963,69.108315C296.3691,71.013824,292.51108,73.67863,285.97516,79.34209C283.47552,81.52105,280.26697,84.07965,278.8357,85.1142C275.5947,87.394966,269.56613,93.037186,267.94107,95.212975C267.29935,96.10201,265.49283,98.22275,263.94064,99.8497C260.3982,103.58848,258.47742,106.163925,255.97089,110.367546C254.86884,112.20068,253.51913,114.38963,253.01968,115.19384C252.47421,115.995476,250.87038,118.67847,249.46138,121.14075C248.09834,123.60548,246.14394,126.86952,245.19533,128.38795C243.8479,130.53127,243.31696,131.97794,242.84973,134.94656C241.55902,142.52324,240.8128,146.49077,240.60223,147.03265C240.49463,147.34955,241.01196,148.06525,241.76556,148.65436L243.13947,149.73395L244.01532,148.76422C245.27858,147.39923,246.1285,147.90118,246.38582,150.16876C246.472,151.2315,246.75294,152.07355,246.9366,152.08258C247.16615,152.09381,247.7071,151.38385,248.16292,150.5318C248.61879,149.67963,249.20564,148.97198,249.4811,148.98541C250.07796,149.01459,249.96352,151.35614,249.2859,152.9798C248.7707,154.10516,248.91066,154.06598,250.55476,152.44354C252.3937,150.60052,253.5549,150.38104,253.48087,151.89618C253.45847,152.35529,253.83578,153.11017,254.31833,153.59393C255.15036,154.46297,255.19846,154.41939,255.25009,153.36334C255.32639,151.8023,255.90994,150.22003,256.3691,150.2425C256.59866,150.25372,256.76212,150.67584,256.73972,151.13507C256.70828,151.77777,256.92886,151.97272,257.5347,151.81818C257.99826,151.74884,263.36935,147.31708,269.42596,142.04436C275.48248,136.77164,281.53006,131.68251,282.82132,130.68715C286.1127,128.31679,297.95428,123.32691,300.7707,123.14234C306.35748,122.771,311.4243,127.39076,312.14035,133.45486C312.27695,134.42789,312.81528,137.53775,313.41293,140.37431C313.967,143.16277,314.61838,146.78435,314.8658,148.31525C315.1108,149.8919,315.44772,151.4732,315.6616,151.80585C315.91245,152.32428,317.60446,152.5451,323.4813,152.83234C330.36816,153.16888,331.1443,153.29889,333.0713,154.35945C335.5796,155.77083,338.77197,159.19441,340.288,162.0759C341.76248,164.86325,343.7966,171.26778,344.94836,176.89267C346.59375,184.65892,346.7572,185.08116,347.55115,184.84373C347.97107,184.7263,350.32056,183.73656,352.81226,182.66173L357.37134,180.72142L357.7682,176.36874L358.11914,172.01376L361.74002,166.66805C367.44415,158.24861,373.6196,150.54242,377.52475,146.91351C380.84982,143.85454,381.37277,143.51189,383.8309,143.12566C387.07617,142.64006,389.7212,143.1375,392.17456,144.73003C396.05676,147.22089,398.02625,151.18304,398.8374,158.12617C399.54007,164.46555,400.47018,168.97517,402.09225,174.39316C402.84787,176.82321,403.6461,180.2678,403.87985,182.0742C405.08847,191.2456,406.19577,194.01514,410.66125,198.69753C412.23547,200.38527,413.59827,201.6946,413.69458,201.60707C413.83667,201.52199,413.5033,198.9286,413.05444,195.86914C410.37415,178.20346,410.40674,178.4813,410.91772,173.67392C412.5059,159.07027,412.57327,157.69295,411.92862,153.93353C411.31863,150.40607,410.8677,147.39264,410.5297,144.89091C410.36075,143.63994,410.21878,139.95122,410.15445,133.73502C410.12442,131.52455,409.98135,128.80226,409.8035,127.735C408.96964,123.13795,401.0948,101.58286,398.2746,96.198326C394.94806,89.86884,389.44363,83.846985,378.9639,75.09672C373.57135,70.55302,370.43594,68.78897,362.8483,65.84085C359.32547,64.47207,358.91446,64.40603,347.30298,63.746483C340.73972,63.37966,333.93796,63.185326,332.13828,63.281517 Z"/> </g> <g style="fill:rgb(255,197,165); fill-opacity:1.0; stroke-linejoin: miter"> <path d="M294.11517,126.544815C291.0176,127.774185,287.3466,129.43568,285.93106,130.14882C283.75632,131.33119,275.9818,137.85452,262.321,149.93512C260.8763,151.24518,258.8784,152.57428,257.9399,152.94257C256.76968,153.34552,256.14584,153.86737,256.1212,154.37239C256.05838,155.65791,255.17258,155.89082,254.16373,154.87495C253.28586,154.00372,253.28586,154.00372,253.49399,155.3946C253.59586,156.13594,253.97849,159.60628,254.31744,163.0285C254.70233,166.45296,255.30658,171.03865,255.66028,173.21909C256.01392,175.39938,256.58472,178.78696,256.85553,180.77916C257.1588,183.04918,258.07336,185.99315,259.35754,188.9093C261.0537,192.81213,261.99872,194.19287,265.83713,198.5226C274.1252,207.85611,274.9771,210.19875,275.08118,223.13614C275.15344,228.24821,275.46912,229.32219,277.68176,231.1331C279.00977,232.2105,279.5999,232.37737,283.41068,232.56364L287.5887,232.76787L287.79013,234.29643C287.88522,235.17548,288.32846,237.40631,288.7897,239.26984C289.7076,243.08844,291.25943,245.2353,293.48892,245.7585C294.76108,246.09676,294.88986,246.28719,294.81357,247.84822C294.7103,249.96016,296.76596,253.09824,299.69983,255.22055C301.7881,256.74924,302.20908,257.5522,302.8055,261.35516C303.02048,262.60822,303.26328,264.2309,303.3674,264.92633C303.54306,266.03952,303.85776,266.19296,306.00436,266.52805C313.95285,267.74496,318.4321,268.37802,326.07483,269.25778C333.44434,270.07822,334.77588,270.14328,335.49365,269.58005C337.06714,268.46042,339.32254,267.51205,340.42447,267.566C341.34268,267.6108,344.39078,269.27853,344.366,269.78354C344.34586,270.19675,347.16714,288.74365,347.71683,291.6239C348.40738,295.3855,348.5186,302.52444,347.9136,305.48636C347.59875,307.21973,347.3557,307.48413,346.4375,307.4392L345.33557,307.38538L346.1753,309.0371C346.6836,309.9364,347.1527,310.69568,347.24463,310.7002C347.38232,310.7069,350.3186,309.00952,354.49146,306.49805C356.57892,305.2195,368.6198,299.9171,371.23578,299.12463C373.1955,298.57605,377.32895,297.81152,383.0737,297.0338C391.59787,295.88574,397.42236,294.4215,405.43713,291.4536C409.42053,289.99158,414.00076,288.55847,419.41202,287.07422C422.3975,286.25354,427.345,284.83862,430.42682,283.9308C434.72272,282.66794,437.64655,282.16647,442.96027,281.7358C446.79572,281.41708,450.90878,281.0659,452.11154,280.94052L454.37704,280.7291L450.66415,275.7153C447.1214,270.98605,439.74182,259.07358,435.17587,250.79659C433.36093,247.44026,424.15793,226.69463,416.85278,209.49332C415.44885,206.20316,414.06165,203.51198,413.83203,203.50075C413.55664,203.48732,411.7113,201.69435,409.7025,199.47902C405.20236,194.56482,403.7872,191.50427,403.0107,184.79308C402.72092,182.24754,401.6362,177.13217,400.57614,173.39853C399.40073,169.19905,398.35974,164.1318,397.86865,160.05782C397.40088,156.44514,396.66663,152.63544,396.16504,151.59833C393.30225,145.19939,387.5835,142.61882,381.89108,145.148C380.01205,145.93059,378.61765,147.15094,375.7955,150.2807C369.9493,156.89827,360.91446,169.43501,359.39893,173.13486C359.0327,174.03732,358.6427,176.36545,358.50488,178.2457L358.33655,181.6892L353.30713,183.83653C346.77722,186.5548,346.31128,186.67015,345.7683,185.53905C345.51758,185.0205,344.78442,182.13121,344.14966,179.10886C341.7308,167.3929,339.76712,162.37253,336.13818,158.46736C332.90674,154.90376,331.23035,154.36153,322.36923,153.9284C316.7219,153.6524,315.07578,153.4339,314.68735,152.90875C314.38388,152.5257,313.85324,150.19867,313.46933,147.69476C313.08554,145.1906,312.5472,142.08098,312.19675,140.77507C311.8901,139.5175,311.3752,136.86905,311.09995,134.96878C310.2629,129.49721,308.33356,126.595474,304.54205,125.07545C301.7448,123.92628,299.93622,124.206184,294.11517,126.544815 Z"/> </g> <g style="fill:rgb(255,197,165); fill-opacity:1.0; stroke-linejoin: miter"> <path d="M294.75714,275.3669C285.39227,284.29773,280.53848,289.44507,279.7645,291.15625C279.50577,291.74182,279.257,293.06433,279.20767,294.07434C279.0887,296.5077,278.17252,298.30383,275.54514,301.213C272.1405,304.95847,272.08112,305.23157,272.1601,310.20593C272.22485,312.64832,272.3802,316.06152,272.52222,317.86328C274.1678,335.98453,274.15497,340.95438,272.3435,348.8277C270.9296,355.15567,270.95187,356.58353,272.84842,361.0944C273.91647,363.7238,275.16495,365.4877,278.2195,368.90445L282.14743,373.28458L287.39255,375.1977C290.24017,376.2574,292.8258,377.028,293.06433,376.85565C293.3465,376.73126,293.80908,375.74152,294.18213,374.70123C294.84082,372.52432,296.84656,370.0911,300.1101,367.35123C301.40356,366.30984,303.15735,364.32462,304.10156,362.89798C305.84314,360.22183,307.95898,355.53885,308.02625,354.1614C308.0487,353.7023,308.83716,352.63626,309.7521,351.80664C310.66718,350.977,311.65717,349.55267,311.9776,348.6479C312.252,347.74078,313.19293,345.43964,314.01947,343.59317C314.89423,341.7029,315.7702,338.84634,315.9887,337.20023L316.4146,334.13748L319.15033,333.71902C322.30377,333.2288,323.16498,333.501,327.4011,336.2852C329.89804,337.92606,329.89804,337.92606,331.81638,337.28336C333.3148,336.75845,333.84225,336.324,334.22653,335.0541C334.71152,333.60513,334.59164,333.2311,332.63242,330.00577C331.22714,327.68204,329.48715,325.61795,327.3663,323.81152L324.23224,321.08105L317.52667,320.79932C313.8537,320.61975,307.50433,320.58557,303.44827,320.7096C297.04166,320.9026,294.66098,320.64832,295.4774,319.95178C296.15152,319.34033,313.50372,315.54016,315.34235,315.5841C317.13312,315.6715,324.07672,319.5547,327.84018,322.59204C330.80637,324.9921,331.89584,326.24197,333.8508,329.5591C336.90732,334.81705,337.54794,334.89432,339.56967,330.25284C340.13974,328.94595,340.0267,328.43423,338.43808,324.21448C336.88864,320.1349,336.33444,319.2334,333.4432,316.23865C331.6461,314.40198,329.176,312.2102,327.88266,311.36462C326.58713,310.56494,324.763,309.27917,323.78876,308.49524C320.55157,305.98987,317.6157,303.91348,316.80502,303.5518C316.08383,303.2404,309.2763,304.1041,299.11368,305.81653C295.26474,306.41077,294.71164,306.4298,294.74075,305.8329C294.75876,305.46558,299.38492,304.03488,301.7971,303.64664C302.1689,303.57266,304.49814,302.99625,306.92368,302.33243C309.35165,301.62268,312.33713,300.80212,313.55112,300.44714C316.39658,299.6659,318.67648,300.0995,320.93958,301.82083C321.91602,302.55887,324.328,304.05753,326.301,305.1202C331.3635,307.94507,336.296,311.54565,338.6954,314.24023C339.70212,315.302,341.8331,315.95837,343.77707,315.7312C345.02795,315.56226,345.59692,315.22192,346.20166,314.14697C347.01257,312.62183,346.96887,312.5736,342.23294,304.01212C342.02127,303.6337,341.26212,302.21585,340.59048,300.8944C339.24014,298.38916,338.97366,298.19202,331.6582,294.3828C329.54736,293.31323,326.5542,291.4641,324.9967,290.3755C323.44128,289.24084,321.96887,288.29456,321.73926,288.28333C321.50977,288.2721,321.0182,287.9718,320.71472,287.58887C320.27795,287.1073,319.27243,286.9662,316.97006,286.99158C314.48178,287.0542,312.47836,287.55444,307.32248,289.46558C303.76132,290.76428,300.53278,291.84912,300.25726,291.83557C299.66046,291.8064,293.99054,293.87646,292.43274,294.67468C291.3476,295.2201,290.65887,295.1864,290.6903,294.54358C290.71722,293.99255,298.19012,290.8141,299.33795,290.87012C301.1745,290.95996,302.5665,289.7854,304.7203,286.20886L307.01852,282.5013L311.19662,282.70554C313.53818,282.81992,320.62,282.936,326.92346,282.968L338.4241,283.0698L340.21487,281.27036L342.04935,279.51913L340.81216,277.52573C340.12686,276.47983,338.56155,274.60837,337.3275,273.4896L335.03882,271.35263L325.7937,270.30258C317.42075,269.295,308.23056,268.06345,304.67172,267.4293C303.3929,267.22873,302.5787,267.87936,294.75714,275.3669 Z"/> </g> <g style="fill:rgb(156,202,187); fill-opacity:1.0; stroke-linejoin: miter"> <path d="M453.05426,281.83118C452.4323,281.83118,451.95047,281.87646,451.8785,281.94174C451.7822,282.02902,448.35776,282.4139,444.29047,282.76743C439.20416,283.25522,435.21295,283.93457,431.52753,284.95105C420.0513,288.1178,412.4855,290.37134,408.8806,291.62195C396.0056,296.1012,392.18686,297.01904,377.9111,299.08264C372.95123,299.80664,371.17523,300.36426,365.53778,302.71194C354.72876,307.2921,348.00488,311.1515,348.16492,312.58606C348.2578,313.511,347.00452,315.6128,345.81177,316.47498C345.47964,316.7381,344.32092,316.92615,343.09094,316.92615C342.9023,316.92615,342.71204,316.92172,342.5228,316.91248C340.36484,316.807,339.64145,316.54163,338.31577,315.41833C337.98795,315.13245,337.51797,314.73416,336.98788,314.28796L336.9845,314.28796Q336.97928,314.29413,336.9732,314.3001L335.004,315.91522L335.00735,315.91522C337.2624,318.241,337.76907,319.23126,339.4774,323.6671L341.52158,328.92154L340.1406,331.75333C338.85812,334.45206,338.6655,334.62674,336.99924,334.82144C335.65646,334.98587,335.18173,335.28494,335.15256,335.88174C335.0964,337.02957,333.00217,338.44595,331.00998,338.7167C330.75208,338.75156,330.51456,338.7698,330.28903,338.7698C329.4207,338.7698,328.72998,338.49945,327.738,337.8665C326.84665,337.27066,325.14902,336.22122,323.89044,335.60745C322.56378,334.89282,321.9019,334.6268,321.03223,334.6268C320.60843,334.6268,320.1353,334.68997,319.5119,334.7952L317.3753,335.19693L316.9405,338.44327C316.65814,340.4545,315.99493,342.72318,315.1314,344.38382C314.4168,345.8216,313.48492,347.93915,313.06146,349.06903C312.63812,350.1989,311.68716,351.76318,310.86404,352.59732C310.08902,353.38785,309.4059,354.1829,309.3992,354.3207C309.37674,354.77982,312.07278,359.88187,312.89578,360.93472C313.5922,361.75113,313.66605,362.12296,313.2327,362.5159C312.89554,362.82156,312.60318,364.09586,312.54263,365.33548C312.34293,369.42178,310.57864,374.44415,308.0553,378.04852C306.81323,379.92084,305.7638,381.61835,305.75037,381.89386C305.73914,382.12347,304.0088,384.57,301.8954,387.32013C296.589,394.19415,295.89014,395.31064,288.97845,407.72113C283.17786,418.1148,278.37964,427.7751,274.94995,435.7994C274.11664,437.78366,271.68716,443.23355,269.56912,447.96255C258.42224,472.638,260.04297,468.66718,254.0827,486.09445C247.63069,505.10858,244.1639,514.8339,243.51094,515.9526C243.20851,516.49005,242.8243,517.7598,242.68086,518.81146C242.44887,520.7331,239.06392,529.726,238.23848,530.60626C237.9955,530.8704,237.8094,532.79425,237.84389,534.913L237.93535,538.69116L239.66655,539.052L241.44145,539.46094L241.31126,542.1238L241.17888,544.8327L238.42412,544.69806L235.66936,544.5634L235.55717,546.8591C235.49657,548.0987,235.58269,549.16144,235.72044,549.16815C235.8582,549.17487,238.76738,549.91547,242.17278,550.8642C245.58025,551.767,249.71796,552.7978,251.35736,553.154C252.9967,553.5103,257.8141,554.7581,262.03912,555.8852C268.8475,557.6913,274.12534,558.4831,281.23608,558.4831C284.5646,558.4831,288.29474,558.3096,292.77145,557.9854C294.80508,557.8088,299.6965,557.54156,303.61923,557.31903C307.5421,557.0966,312.344,556.7791,314.23755,556.6414C316.13123,556.50397,322.77405,556.18427,328.99475,556.02814C335.21765,555.8261,340.79776,555.59247,341.44498,555.53204C342.0922,555.47174,347.53238,555.2774,353.56937,555.1121L364.49112,554.81757L364.3289,553.429C364.27518,552.644,364.06046,549.50397,363.97903,546.46246C363.77127,541.2977,363.4144,538.24286,362.14853,531.1857C360.35324,520.8349,359.31955,509.96906,359.1628,499.05414C359.05673,494.63077,359.02112,493.4785,358.50757,487.97678C358.1798,484.32492,358.69458,476.61838,359.79395,468.24994C361.4558,455.9051,362.88263,442.72055,362.9411,439.63986C362.99396,437.61752,362.77924,434.4774,362.45135,432.7125C362.17157,430.90402,361.78217,427.57123,361.61664,425.30804C361.4074,422.99677,360.951,419.1546,360.60855,416.7447C360.22012,414.33258,359.55997,409.00763,359.11465,404.93594C358.71524,400.8665,358.119,395.1766,357.79904,392.30756C357.48117,389.39264,357.41647,386.95038,357.6528,386.82367C357.76364,386.7627,357.85712,386.72034,357.93912,386.72034C358.31174,386.72034,358.4465,387.5958,358.89316,391.57867C359.13705,394.1219,359.5377,397.22482,359.7043,398.5217C359.87338,399.77255,360.2167,403.1028,360.49307,405.92374C360.77167,408.69867,361.23273,412.44916,361.5125,414.25763C362.00714,417.31927,362.68634,423.19733,363.10016,427.9118C363.22772,429.06866,363.52643,431.4304,363.81073,433.1472C364.37042,436.76425,364.1076,444.02292,363.0586,452.3017C362.6742,455.45844,362.14185,459.75848,361.89868,461.90973C361.60962,464.05865,361.0929,468.0373,360.72656,470.82672C359.90283,477.32175,359.4148,486.36435,359.82666,489.23776C359.9956,490.48862,360.2181,494.4114,360.36667,497.96234C360.7629,511.5124,361.59518,520.84955,363.04794,528.79034C364.27682,535.6618,365.59683,550.08527,365.40933,554.86237C365.3644,555.7807,365.0386,555.8569,360.89297,555.93036C358.4047,555.99274,354.39468,556.11896,351.996,556.2319C349.59732,556.34467,346.2759,556.5046,344.61624,556.56146C342.95438,556.66437,341.29263,556.76715,340.9208,556.841C340.54898,556.915,337.22757,557.0749,333.54102,557.1707C322.3921,557.40814,320.64063,557.46075,314.86792,557.86884C311.82202,558.0422,306.4187,558.4224,302.86545,558.617C299.31223,558.81146,293.40182,559.2128,289.7086,559.4465C286.7529,559.6555,283.95868,559.7607,281.3196,559.7607C274.68094,559.7607,269.02426,559.09503,264.24945,557.742C261.25287,556.90533,256.1623,555.59796,252.88574,554.8394C241.83,552.2281,231.06082,549.4006,228.35092,548.34784C225.50278,547.2728,223.55464,546.8126,221.39668,546.8126C220.37051,546.8126,219.29689,546.9167,218.05649,547.1082C216.45142,547.3793,214.55553,547.57056,213.47937,547.57056C213.27985,547.57056,213.10852,547.56396,212.97243,547.5501C209.4394,547.3315,205.74983,544.66583,198.21863,536.796L194.80573,533.1775L192.73047,535.1472C189.68988,538.036,184.67603,541.749,177.2075,546.7225C173.25981,549.337,169.9113,551.93463,169.12279,553.0007C167.79568,554.73065,167.74081,554.91205,167.49496,560.8829C167.28055,566.2111,167.3298,567.08795,168.06767,567.99835C168.76183,568.86066,168.8502,569.8775,168.7434,574.88873L168.63979,580.77454L173.42122,582.7571C178.92831,584.9591,179.23856,585.20447,181.32217,588.7119C182.17313,590.13416,183.16849,591.4254,183.57498,591.5834C184.02737,591.7435,185.15048,592.3047,186.13815,592.8131C189.01144,594.2883,198.31468,597.9186,200.90477,598.5974C202.22502,598.8921,205.23058,599.54517,207.50822,600.02466C212.47461,601.0498,214.67267,602.2158,216.70715,604.84644C218.35315,606.9518,220.85016,608.59265,224.6463,610.02075C226.00122,610.5471,228.4378,611.54065,230.0638,612.1725C250.05307,620.32886,249.78207,620.22363,269.98453,624.0185C273.8624,624.7142,279.01465,625.70233,281.38416,626.18634C283.75586,626.62445,287.26874,627.2564,289.1444,627.486C291.02008,627.7159,295.76813,628.5002,299.64606,629.196C308.18,630.6716,322.94028,632.81976,332.31866,633.9683C339.45648,634.8234,352.90314,636.5391,361.59064,637.7C367.12732,638.4417,376.9221,639.02325,383.51834,639.02325C384.65732,639.02325,385.70096,639.0059,386.6108,638.96906C388.51865,638.8981,391.85422,638.8501,395.07886,638.8501C396.37418,638.8501,397.65158,638.85785,398.81137,638.87494C402.16235,638.91565,404.7966,638.9442,406.90018,638.9442C414.2381,638.9442,415.11856,638.597,417.43985,637.2083C418.9081,636.35956,421.6474,634.9288,423.43915,634.04974C428.8581,631.46124,430.23676,630.5622,431.47443,628.7818C432.66156,627.091,436.85748,616.57275,439.34186,609.05444C440.09686,606.7903,441.28424,603.2125,442.03253,601.08594C442.78082,598.9596,443.43036,596.9663,443.44843,596.599C443.46637,596.2317,444.0656,594.3281,444.76117,592.33716C447.8003,583.83344,448.81836,580.8918,448.84534,580.3409C448.86108,580.0195,449.35498,578.3868,449.8949,576.7564C450.437,575.08,451.34998,572.40924,451.844,570.7767C453.47498,565.6558,456.94617,555.83856,459.32642,549.5118C460.59436,546.16815,462.6219,540.4685,463.85736,536.847C471.5405,514.3034,472.98752,511.0605,484.54507,490.22495C488.07986,483.81662,491.62137,477.27036,492.3909,475.6511C493.16043,474.03195,494.6332,471.20453,495.68948,469.3692C498.76163,463.95074,499.63214,460.26532,500.6792,448.25876C501.00317,444.45468,501.37085,440.69882,501.54456,439.97092C501.67444,439.19492,502.15088,434.15585,502.55334,428.7448C503.28223,419.48383,503.2815,414.7895,502.53888,405.50278C502.3969,403.7009,502.22577,400.6091,502.1867,398.58224C501.622,380.0075,501.44073,378.06573,499.47147,372.21658C498.58487,369.64212,497.22122,365.52554,496.4196,363.09317C495.61807,360.66068,494.08896,356.1679,492.99277,353.169C491.94492,350.12628,491.06064,347.5058,491.06735,347.36798C491.0831,347.04657,488.59103,339.65323,485.64108,331.27115C484.71518,328.55655,483.71335,325.51614,483.44125,324.49023C482.6229,321.45874,481.05658,318.667,477.56415,313.84802C475.70667,311.36417,471.83716,305.7903,468.9193,301.4596C466.04733,297.13135,461.79147,290.98645,459.5107,287.74536C455.593,282.2153,455.285,281.92404,453.72397,281.84775C453.49167,281.8364,453.26492,281.83118,453.05426,281.83118 Z"/> </g> <g style="fill:rgb(255,197,165); fill-opacity:1.0; stroke-linejoin: miter"> <path d="M307.71835,284.19226C307.08554,284.8977,306.69125,285.4308,305.14682,287.84045L304.29672,289.2257L308.14243,287.7567C310.2993,286.94177,312.77304,286.23425,313.64987,286.18506C318.91086,285.8899,319.19077,285.81152,319.2357,284.8933C319.2761,284.0669,318.91098,284.00305,313.81467,283.75403C309.36118,283.53638,308.25253,283.62024,307.71835,284.19226 Z"/> </g> <g style="fill:rgb(255,197,165); fill-opacity:1.0; stroke-linejoin: miter"> <path d="M310.9693,317.48743C309.43854,317.73474,306.83148,318.34363,305.15396,318.76794L302.12466,319.54028L306.45172,319.5216C308.8459,319.5006,313.30402,319.62646,316.33636,319.72864L321.8941,319.95435L319.2022,318.53406C316.1978,316.91455,314.9649,316.7162,310.9693,317.48743 Z"/> </g> <g style="fill:rgb(156,202,187); fill-opacity:1.0; stroke-linejoin: miter"> <path d="M267.54105,354.80606C265.8733,357.85403,264.45538,360.50003,264.4464,360.68362C264.43518,360.91324,260.6584,368.5065,256.74384,376.09296C256.23315,377.12653,255.77277,378.0705,255.76605,378.2082C255.7616,378.3,254.94171,380.00885,253.927,381.9383C251.4942,386.5136,245.5804,398.28238,245.57143,398.4661C245.56245,398.6497,243.17116,403.31912,240.13142,409.01544C232.93634,422.51654,231.97424,424.31036,228.79327,431.01242C225.87108,437.1285,225.24937,439.49118,224.4971,448.29083C224.17984,451.9571,223.60713,457.08356,223.24739,459.7353C222.88765,462.38702,222.3105,467.6053,221.98653,471.40936C221.66475,475.16757,221.23994,479.15073,221.04836,480.24594L220.72456,482.16306L225.79153,484.89584C228.57303,486.36642,231.67365,487.8987,232.66803,488.26944C235.9244,489.44107,244.0818,494.85623,244.03694,495.77444C243.98982,496.73868,236.14186,499.1164,229.08679,500.33636C225.88513,500.87018,223.23895,501.33917,223.1908,501.38275C223.09674,501.42426,223.6128,503.10626,224.34497,505.075C225.39282,508.11774,225.99078,509.06732,227.84503,510.6767C231.77191,514.13617,233.24664,515.0368,236.69344,516.07965C238.50746,516.6285,240.36519,517.2255,240.81538,517.4317C241.26326,517.68353,241.58919,517.6075,241.60713,517.2402C241.62282,516.91876,241.98677,516.0622,242.39229,515.2996C243.30843,513.5035,246.93538,503.32574,253.33484,484.4471C256.12622,476.29953,259.67365,466.8083,261.52844,462.7569C263.28693,458.7929,265.86536,453.12006,267.20715,450.14813C268.549,447.1763,270.82275,442.08688,272.22174,438.88766C277.4626,426.76385,281.23932,419.1706,287.79596,407.43317C296.72363,391.4394,296.4784,391.7497,302.7367,384.23175L304.25647,382.32697L302.84448,382.028C299.20056,381.25153,282.6658,374.92072,281.16086,373.6966C278.4589,371.53946,272.78098,364.35867,271.62552,361.63297C269.89914,357.4064,269.58914,355.27432,270.3801,352.27542C270.72507,350.86572,270.9716,349.589,270.83835,349.49048C270.75327,349.34827,269.25467,351.76025,267.54105,354.80606 Z"/> </g> <g style="fill:rgb(116,147,137); fill-opacity:1.0; stroke-linejoin: miter"> <path d="M307.65515,358.9296C306.09143,362.67313,303.57495,366.1398,299.96545,369.36905C297.4635,371.59402,296.2417,373.053,295.51135,374.8122C294.94122,376.11896,294.4674,377.33844,294.45618,377.56793C294.44495,377.79755,295.7058,378.36542,297.2926,378.85712C298.8335,379.34662,300.86584,380.1363,301.76392,380.59442C302.66418,381.00665,303.70898,381.28778,304.0371,381.1657C304.36523,381.04376,305.73608,379.362,307.02856,377.4001C308.91455,374.59283,309.6382,372.97134,310.49283,369.60745C312.08145,363.47208,312.0613,361.99844,310.45352,359.11258C309.68997,357.78653,308.96106,356.6924,308.82336,356.6857C308.68555,356.679,308.1748,357.71243,307.65515,358.9296 Z"/> </g> <g style="fill:rgb(198,198,198); fill-opacity:1.0; stroke-linejoin: miter"> <path d="M90.16582,437.76736C88.210556,438.22403,82.8408,439.80252,70.92892,443.40836C69.24905,443.87857,67.1526,445.34085,62.217175,449.33368C61.16444,450.15668,57.59864,453.43414,54.07648,456.7597C52.773926,457.98456,51.234985,461.22296,52.180176,460.71686C52.4646,460.5467,53.886906,459.69574,55.401005,458.8493C60.144848,455.95172,65.16725,455.82892,73.37429,458.3471C79.81088,460.36456,103.32965,469.75214,131.73856,481.72568C155.14317,491.56778,162.22581,494.49124,162.68492,494.51358C162.91447,494.5248,168.55713,496.77957,175.18506,499.5888C181.81532,502.3521,188.58327,505.122,190.20692,505.79962C191.8788,506.43365,193.58987,507.2077,194.03549,507.50543C194.52933,507.75983,195.97159,508.3825,197.28287,508.86078L199.67807,509.7602L201.7421,508.02032C205.82193,504.5838,214.75963,501.56903,226.68933,499.48285C231.1004,498.68585,236.02998,497.6382,237.6202,497.11758C239.25856,496.55338,240.98872,495.99356,241.4546,495.87833C242.3426,495.59952,242.3426,495.59952,241.49947,494.96C239.23872,493.19278,232.48322,489.22684,231.65894,489.14053C231.38348,489.1271,228.55157,487.74612,225.36588,486.07162C222.18013,484.3972,219.21046,483.0095,218.79726,482.98923C218.33809,482.9669,217.97975,482.76523,217.98872,482.58163C217.99995,482.35202,215.92842,481.42233,213.39546,480.5162C208.91968,478.87082,199.51569,475.41965,181.38742,468.73468C172.07301,465.33417,158.55829,460.30145,146.57988,455.85016C142.24187,454.21136,137.44688,452.5042,135.95195,452.01703C134.45708,451.52972,129.2579,449.61884,124.42379,447.77176C116.60652,444.81253,103.0918,439.7797,99.3371,438.4457C96.71233,437.53494,92.5388,437.23904,90.16582,437.76736 Z"/> </g> <g style="fill:rgb(198,198,198); fill-opacity:1.0; stroke-linejoin: miter"> <path d="M21.318445,441.4899C15.459857,449.30353,12.661087,452.89447,12.140334,453.19122C11.5714245,453.53168,11.658767,453.62787,17.334677,458.96783C22.132717,463.43646,23.83798,465.2685,29.970617,472.56366C32.625465,475.6849,35.54899,478.95718,36.562355,479.88126C39.561016,482.559,41.930466,483.043,62.303352,485.23538C64.95728,485.54922,67.74898,485.86966,68.47914,485.99734C69.252945,486.17337,72.82063,486.6238,76.48019,487.07877C80.13973,487.53384,83.75113,488.03238,84.57083,488.2106C85.84512,488.50296,86.079254,488.4224,86.30771,487.5131C86.973114,485.19852,87.85161,480.40915,87.934616,478.7103C88.062546,476.09335,86.02921,472.49628,82.12925,468.48578C78.71182,464.95905,76.30441,463.3687,68.931786,459.7868C65.3351,458.04633,64.65309,457.87482,62.07301,457.93292C59.075203,458.06244,58.324898,458.34796,53.85657,461.2591C51.952698,462.5467,51.031006,463.5141,50.11255,465.35614C49.44836,466.7044,48.705807,467.77252,48.476254,467.7613C48.017147,467.73895,46.888668,464.46222,46.58093,462.28412C46.2799,459.96832,44.240288,452.73517,43.476616,451.40912C43.01427,450.51215,42.346973,449.09894,42.06377,448.30267C41.335987,446.2421,37.785385,442.61685,35.661114,441.82266C34.66679,441.45193,32.193214,440.2725,30.17423,439.20743C28.109348,438.14005,26.085968,437.16666,25.679474,437.0087C25.045624,436.79373,24.078093,437.75882,21.318445,441.4899 Z"/> </g> <g style="fill:rgb(198,198,198); fill-opacity:1.0; stroke-linejoin: miter"> <path d="M41.883717,445.39444C42.44469,446.1581,43.081715,447.24783,43.238457,447.80777C43.392937,448.41364,43.93145,449.63654,44.43981,450.53583C45.454216,452.3803,47.23303,458.3581,47.829525,462.16107L48.213375,464.66498L49.938232,461.3897C50.89807,459.64166,51.67206,457.93073,51.685547,457.6552C51.698975,457.37982,52.962284,456.01483,54.4574,454.61517C55.952457,453.2155,57.114998,452.02972,56.981697,451.9312C56.894417,451.8349,55.093754,451.01056,53.02222,450.08087C49.554256,448.5307,45.10534,446.33426,42.05736,444.66653L40.80321,443.96097L41.883717,445.39444 Z"/> </g> <g style="fill:rgb(136,97,89); fill-opacity:1.0; stroke-linejoin: miter"> <path d="M8.397715,454.435C11.133192,457.79034,13.275224,460.10406,19.981163,466.96698C31.51096,478.7139,32.069675,479.5236,30.520662,482.02518C29.920382,483.0082,29.792452,485.62527,30.21097,488.3611C30.312838,489.10245,31.46616,489.9872,34.649696,491.70755C37.026955,492.97427,39.050396,493.94766,39.098553,493.90396C39.194866,493.81668,40.020245,492.93643,40.94426,491.92325C42.597275,490.1171,42.60179,490.0253,42.305283,487.61758C41.872177,484.23672,41.56877,483.8538,39.125347,482.99796C37.269875,482.355,36.079567,481.28433,31.450722,476.17978C28.439854,472.8111,24.736967,468.534,23.173794,466.61688C21.613003,464.65363,19.468773,462.38568,18.36135,461.5031C17.253866,460.62067,14.873309,458.4793,13.071732,456.73444C11.270033,454.98956,9.096629,453.31866,8.237741,453.00055L6.749581,452.37543L8.397715,454.435 Z"/> </g> <g style="fill:rgb(198,198,198); fill-opacity:1.0; stroke-linejoin: miter"> <path d="M70.93075,459.37823C78.59451,462.65228,85.565956,468.7917,88.09508,474.48422C89.427475,477.35666,89.45763,477.68015,88.97917,480.8785C88.70572,482.70584,88.1691,485.21097,87.78714,486.43484L87.12399,488.70352L98.04979,492.09097C104.07989,493.95047,112.553406,496.66568,116.89819,498.1667C121.24067,499.71368,130.43312,502.78607,137.2717,505.05328C144.11246,507.2746,152.66881,510.17792,156.28795,511.4594C159.90715,512.7409,165.70313,514.68097,169.19354,515.7719C172.68396,516.8631,179.61214,519.1806,184.59071,520.89667C193.4617,523.9534,200.57126,526.32587,219.23149,532.48456C224.35004,534.1613,229.7396,535.9435,231.23001,536.5226C232.72276,537.0558,234.62633,537.655,235.48973,537.88135L237.03508,538.27905L236.87846,535.83215C236.76216,534.44586,236.74117,532.0517,236.81972,530.44476C236.98354,527.0932,237.78078,527.7304,227.95807,523.4305C224.62561,521.9329,219.53392,519.70514,216.6953,518.46173C213.85661,517.21857,208.98784,515.1397,205.87595,513.8371C202.76407,512.53436,199.83365,511.28656,199.33981,511.0324C198.84592,510.77814,197.6265,510.30426,196.62991,509.97943C195.63553,509.6087,194.23697,509.03412,193.4744,508.6286C192.75546,508.2713,190.99855,507.49518,189.64357,506.9687C188.29091,506.3963,183.19478,504.2603,178.36964,502.22968C173.54675,500.153,166.82239,497.43118,163.47649,496.20914C160.1328,494.9412,155.43639,493.10074,153.0916,492.11185C134.83357,484.3162,100.01282,469.82,99.50775,469.79535C99.2782,469.78412,94.58404,467.8979,89.125046,465.65216C79.69766,461.7397,71.37759,458.70966,69.99575,458.7343C69.62844,458.71637,70.07406,459.01422,70.93075,459.37823 Z"/> </g> <g style="fill:rgb(136,97,89); fill-opacity:1.0; stroke-linejoin: miter"> <path d="M42.995285,484.79788C42.925705,486.22122,43.500168,486.7095,46.088062,487.43436C48.632195,488.11087,53.158382,489.66666,66.238655,494.1719C70.22066,495.56314,75.61025,497.34525,78.237206,498.21002C83.90451,499.95978,92.913246,503.02325,99.74284,505.47418C108.06512,508.4582,107.97552,508.40778,108.89501,507.48627C110.39459,505.9948,116.069824,506.64044,124.4123,509.21112C132.25642,511.61945,135.54526,513.0689,143.24472,517.4952C150.184,521.47003,152.04167,522.0672,158.28581,522.3724C163.93304,522.6484,169.47607,524.1159,182.59334,528.80695C190.6905,531.6878,193.17984,532.54584,193.45755,532.5135C193.5975,532.4743,194.01743,532.3566,194.4396,532.1933C194.95364,532.03436,196.37122,533.162,198.86707,535.7693L202.59468,539.54126L207.57216,540.3367C216.20035,541.771,222.14877,542.47595,231.36148,543.2483L240.29881,544.00726L240.3751,542.44617C240.46263,540.65564,241.36064,541.1138,232.29936,538.18567C227.0889,536.5043,224.64328,535.69446,219.62102,533.93024C217.49455,533.18207,214.14415,532.0518,212.14867,531.44806C206.75688,529.71173,193.39664,525.285,183.16847,521.7476C178.1899,520.03156,170.35693,517.3935,165.7367,515.8791C161.11638,514.3647,152.46605,511.50275,146.49081,509.46185C140.5156,507.42096,132.77223,504.83344,129.28407,503.69647C125.79591,502.5595,118.867805,500.24188,113.88916,498.52582C102.70805,494.71182,91.06107,491.01297,88.05325,490.4058C86.82486,490.11563,84.54715,489.63602,83.04324,489.33255C81.54165,488.98294,78.07021,488.4451,75.27627,488.17056C72.53047,487.8522,69.87874,487.49258,69.37825,487.376C68.92354,487.26163,63.110603,486.6094,56.47345,485.87076C49.879936,485.18033,44.117416,484.4385,43.75682,484.28287C43.260727,484.0745,43.0222,484.24698,42.995285,484.79788 Z"/> </g> <g style="fill:rgb(136,97,89); fill-opacity:1.0; stroke-linejoin: miter"> <path d="M43.555893,489.33548C43.683456,490.49234,43.37657,491.1216,41.968796,492.61746L40.22172,494.46512L42.586716,495.04092C43.90477,495.3815,46.634815,496.02115,48.637016,496.4871C52.23492,497.26138,60.193363,499.21515,69.100296,501.5374C71.600784,502.16583,74.05983,502.70013,74.567154,502.67902C83.09018,502.49725,82.405975,502.37177,90.54905,505.25494C103.93725,510.05133,105.79504,510.64838,106.44903,510.45026C107.66515,510.04938,107.14788,509.3338,105.24651,508.68854C104.15807,508.3593,101.08086,507.2884,98.3206,506.32513C86.195465,502.05072,83.02646,500.97528,77.04452,499.0722C70.33699,496.9495,60.10657,493.45804,53.729366,491.1674C51.6029,490.41922,48.431633,489.38968,46.617603,488.84085L43.39592,487.9009L43.555893,489.33548 Z"/> </g> <g style="fill:rgb(255,197,165); fill-opacity:1.0; stroke-linejoin: miter"> <path d="M77.14602,503.58734C76.21426,503.81805,76.515526,504.247,80.596886,508.3122C83.101715,510.73578,86.86844,514.64777,89.05863,516.9178C95.79258,524.1503,97.66026,525.4842,107.27689,530.23425C110.01927,531.5648,114.54869,533.99536,117.3717,535.55994C120.192314,537.17053,123.32995,538.8887,124.317566,539.3971C125.30524,539.90564,127.404785,541.20483,129.00598,542.3417C130.6073,543.4784,134.25763,546.0041,137.15224,547.9864C140.04903,549.9229,143.33882,552.29266,144.49226,553.17755C146.22224,554.5047,151.07857,557.7795,156.16232,561.1114C158.6594,562.75226,166.01846,566.60956,166.21115,566.435C166.35562,566.3039,166.33334,564.87616,166.18228,563.2579C165.69675,558.1257,165.99265,555.8392,167.4061,553.285C168.56535,551.22455,169.67064,550.26605,177.33415,545.07196C182.09148,541.8987,187.43787,537.97205,189.21521,536.448L192.38684,533.7036L190.81354,532.9364C189.95918,532.52655,188.87294,532.1514,188.45973,532.13116C188.04652,532.111,185.05672,531.1363,181.84853,529.9211C170.45355,525.7745,164.04944,524.0347,158.99901,523.7879C152.24986,523.45795,150.30254,522.8106,142.68362,518.61835C138.87527,516.4992,134.56868,514.2177,133.03682,513.5446C128.98543,511.68976,118.09882,508.44232,114.30371,507.93463C111.14697,507.55035,111.00928,507.54364,109.61492,508.7641C108.84441,509.46283,108.062675,510.39093,107.85656,510.84113C107.12853,512.5545,107.30999,512.6093,91.751625,507.01654C83.61075,504.08734,79.24349,503.0456,77.14602,503.58734 Z"/> </g> <g style="fill:rgb(136,97,89); fill-opacity:1.0; stroke-linejoin: miter"> <path d="M205.63026,542.4049C209.15285,545.6606,212.4092,546.8322,216.17307,546.09576C220.07462,545.3659,224.98282,545.69794,228.05093,546.95233C229.49771,547.48346,231.53458,548.1812,232.6231,548.51056L234.53123,549.018L234.6367,546.86005L234.74443,544.6563L225.9426,543.94995C221.08481,543.52844,214.54176,542.7483,211.39174,542.2262C203.95064,540.98816,204.0447,540.94666,205.63026,542.4049 Z"/> </g> <g style="fill:rgb(156,202,187); fill-opacity:1.0; stroke-linejoin: miter"> <path d="M219.18921,611.5029C219.12408,612.83435,218.5661,616.719,217.98682,620.0963C217.36163,623.4715,216.72171,628.0883,216.47177,630.37726C216.27005,632.6225,215.71524,637.3818,215.267,640.90356C213.64755,654.26294,213.35873,664.88,214.28491,676.06256C214.52203,678.74347,214.87207,683.82306,215.11249,687.3786C215.3529,690.934,215.7511,695.97003,215.995,698.5131C216.23663,701.10223,216.3595,704.23773,216.29663,705.52325C216.16876,708.1403,215.95264,707.8536,221.0666,711.5092C225.20174,714.4727,226.95876,715.24884,237.50606,718.84784C244.11282,721.1497,249.35013,722.2801,256.6323,723.0042C259.6558,723.2901,263.04208,723.6856,264.1854,723.8337C265.32874,723.98157,267.70496,724.32764,269.44067,724.5967C271.22455,724.8219,273.14392,725.09985,273.78217,725.223C274.42053,725.3463,277.3958,725.6759,280.41705,726.00757C286.005,726.5569,294.41702,727.70435,296.87607,728.2388C299.33517,728.7731,329.76852,730.39856,335.6633,730.3185C338.8425,730.2439,343.58505,730.19946,346.25473,730.1918C360.85156,730.0309,365.37134,729.8375,373.928,728.9672C377.11832,728.6629,382.52615,728.19086,385.9439,727.94366C389.3615,727.6966,394.0738,727.32855,396.3416,727.0712C398.6552,726.8161,401.84332,726.5577,403.50287,726.5008C405.1624,726.4439,407.6115,726.2414,408.95648,726.03094C421.78424,724.4028,420.84808,724.72516,421.97382,721.46674C423.05585,718.15985,423.35516,714.8609,423.34808,706.5306C423.32074,700.5002,422.9693,698.274,420.41046,686.5972C419.6516,683.2927,419.89954,679.16284,421.02197,675.02966C421.68726,672.71497,422.0785,669.42053,422.33655,664.1405L422.70898,656.51904L420.7732,651.86816C419.70288,649.28467,418.63037,646.74695,418.37964,646.2285C417.08423,643.5419,415.97253,640.8644,415.9972,640.35925C416.01514,639.992,414.91772,639.84625,412.01624,639.8886C409.75757,639.9622,403.91086,639.9986,398.98483,640.03406C394.0587,640.06934,388.1639,640.1494,385.85715,640.26685C383.59836,640.34045,378.21762,640.2617,373.90182,640.0508C366.41806,639.6849,362.8021,639.278,352.84247,637.77875C350.33075,637.3798,344.56598,636.6839,340.03412,636.1862C335.50226,635.68866,328.73175,634.8515,324.93903,634.2979C321.1922,633.74664,315.7073,632.97235,312.82828,632.55536C309.94916,632.13873,304.377,631.2681,300.4992,630.5723C296.61896,629.92255,291.1869,629.01263,288.3996,628.6003C285.65833,628.19025,279.08734,627.0407,273.7996,625.9998C268.5555,625.00714,262.6732,623.8913,260.8019,623.56964C254.41458,622.429,247.60172,620.5773,242.9535,618.69336C240.42726,617.6494,234.37819,615.2367,229.54854,613.29785C224.71667,611.4049,220.43127,609.63074,220.02704,609.42676C219.4414,609.1681,219.33386,609.48486,219.18921,611.5029 Z"/> </g> <g style="fill:rgb(37,53,80); fill-opacity:1.0; stroke-linejoin: miter"> <path d="M215.95105,712.5938C215.8725,714.20074,215.38727,717.5367,214.9425,720.0462C214.45177,722.55334,213.77501,726.9845,213.44774,729.9138C212.93657,734.7213,212.78398,737.8434,212.25957,753.28125C212.18657,755.7168,211.81792,758.5521,211.44041,759.6843C211.06291,760.8164,210.48259,763.2732,210.16106,765.1444C209.06636,771.5341,207.82909,816.6214,208.40794,829.2598C208.51408,831.7963,208.5023,837.6866,208.45708,842.3787C207.76724,878.15027,207.59305,884.53894,207.08005,885.6184C206.81686,886.2959,206.69131,886.98,206.82236,887.1245C206.9993,887.27124,211.03287,887.6063,215.89957,887.84424L224.66891,888.2728L224.49911,884.2146C224.37729,881.99963,223.79434,876.0342,223.16891,870.9413C221.39873,856.3117,221.382,855.71246,222.41997,833.5345C222.98546,821.9644,223.29,811.02606,223.1916,809.2725C222.72523,802.80646,222.01155,794.80975,221.45888,789.168C220.67238,781.72003,220.50374,776.69525,221.0547,776.7222C221.65157,776.7514,221.96053,777.9631,221.86629,779.8914C221.82143,780.80975,222.13344,784.7829,222.53731,788.76056C223.49281,797.4594,223.91347,802.0362,224.1169,805.4058C224.23323,806.79205,224.35408,808.08673,224.43916,808.22894C224.52199,808.41693,224.12915,818.33856,223.5916,830.27814C222.56139,853.23895,222.62248,858.5805,224.31564,870.0768C224.6973,872.6267,225.13358,876.88196,225.27896,879.5585C225.42422,882.23486,225.59756,885.2809,225.68137,886.3895L225.81454,888.375L247.26694,889.19324C259.0754,889.5864,274.60287,890.16113,281.81796,890.37573C289.033,890.5902,310.25583,891.39746,328.99496,892.1753L363.12375,893.52124L363.48007,891.8817C363.66257,890.9702,364.31015,889.02295,364.93503,887.5348C365.78183,885.275,366.108,883.312,366.65512,875.88306L367.27652,866.9393L369.55777,864.5195C372.7631,861.08636,373.4114,860.0595,374.35135,856.8378C375.40762,853.11566,375.61636,848.84576,374.98538,842.92413C374.47964,838.20514,374.48416,838.1132,375.64688,835.04047C380.19,823.0667,385.45334,810.4838,386.6909,808.7034C387.48605,807.4997,390.90976,804.3073,394.40707,801.4869C398.76926,797.9262,400.94296,795.8234,401.60275,794.56696C402.42026,792.9041,403.62912,787.9467,404.7014,782.0163C405.1506,779.41486,407.54297,775.666,409.68982,774.11414C410.64172,773.47034,411.80432,772.28455,412.29932,771.57227C412.7965,770.81433,414.66602,765.5211,416.418,759.80786C419.43008,749.96826,419.61282,749.05664,419.86636,743.8685C420.24112,736.2012,420.38556,725.71515,420.11005,725.7017C419.97235,725.695,419.0428,725.8796,418.02155,726.0599C415.373,726.57477,405.75372,727.5312,386.34686,729.11395C380.6177,729.5704,373.1765,730.219,369.80017,730.5603C366.42383,730.9015,360.1942,731.24133,355.95898,731.2644C351.72153,731.3335,346.42368,731.44275,344.1213,731.46826C328.1335,731.8374,305.17722,730.71545,294.07645,729.02234C290.32956,728.47095,284.98022,727.7494,282.18622,727.47473C279.43823,727.2023,274.08667,726.5265,270.29388,725.973C266.547,725.42163,261.19537,724.74585,258.40143,724.4713C249.06,723.50854,244.68375,722.6503,239.02773,720.6711C236.9012,719.9228,234.59108,719.1656,233.8218,718.8979C228.51735,717.258,221.41121,713.8732,220.77644,712.7376C220.60622,712.4532,219.49434,711.6624,218.28389,711.00507L216.09021,709.74725L215.95105,712.5938 Z"/> </g> </g> </svg>